<svg width="24" height="24" viewBox="0 0 24 24" fill="none" xmlns="http://www.w3.org/2000/svg">
<path d="M20.8598 8.37376L13.9298 2.83376C12.8598 1.97376 11.1298 1.97376 10.0698 2.82376L3.13978 8.37376C2.35978 8.99376 1.85978 10.3038 2.02978 11.2838L3.35978 19.2438C3.59978 20.6638 4.95978 21.8138 6.39978 21.8138H17.5998C19.0298 21.8138 20.3998 20.6538 20.6398 19.2438L21.9698 11.2838C22.1298 10.3038 21.6298 8.99376 20.8598 8.37376ZM11.9998 15.5038C10.6198 15.5038 9.49978 14.3838 9.49978 13.0038C9.49978 11.6238 10.6198 10.5038 11.9998 10.5038C13.3798 10.5038 14.4998 11.6238 14.4998 13.0038C14.4998 14.3838 13.3798 15.5038 11.9998 15.5038Z" fill="#292D32"/>
</svg>
