<svg width="16" height="17" viewBox="0 0 16 17" fill="none" xmlns="http://www.w3.org/2000/svg">
<path opacity="0.4" d="M15.98 4.79001V8.79001C15.98 9.05001 15.97 9.30001 15.94 9.54001C15.71 12.24 14.12 13.58 11.19 13.58H10.79C10.54 13.58 10.3 13.7 10.15 13.9L8.95001 15.5C8.42001 16.21 7.56 16.21 7.03 15.5L5.82999 13.9C5.69999 13.73 5.41 13.58 5.19 13.58H4.79001C1.60001 13.58 0 12.79 0 8.79001V4.79001C0 1.86001 1.35001 0.270009 4.04001 0.0400085C4.28001 0.0100085 4.53001 0 4.79001 0H11.19C14.38 0 15.98 1.60001 15.98 4.79001Z" fill="#292D32"/>
</svg>
